<?xml version="1.0" encoding="UTF-8" standalone="no"?>
<svg
   xmlns:dc="http://purl.org/dc/elements/1.1/"
   xmlns:cc="http://creativecommons.org/ns#"
   xmlns:rdf="http://www.w3.org/1999/02/22-rdf-syntax-ns#"
   xmlns:svg="http://www.w3.org/2000/svg"
   xmlns="http://www.w3.org/2000/svg"
   xmlns:xlink="http://www.w3.org/1999/xlink"
   xmlns:sodipodi="http://sodipodi.sourceforge.net/DTD/sodipodi-0.dtd"
   xmlns:inkscape="http://www.inkscape.org/namespaces/inkscape"
   width="210mm"
   height="210mm"
   viewBox="0 0 210 210"
   version="1.1"
   id="svg909"
   inkscape:version="1.0.2-2 (e86c870879, 2021-01-15)"
   sodipodi:docname="conkurorun.svg">
  <defs
     id="defs903">
    <linearGradient
       inkscape:collect="always"
       xlink:href="#linearGradient4004"
       id="linearGradient4006"
       x1="-41.662334"
       y1="93.738098"
       x2="312.67123"
       y2="93.738098"
       gradientUnits="userSpaceOnUse"
       gradientTransform="translate(0.95627005,20.118723)" />
    <linearGradient
       inkscape:collect="always"
       id="linearGradient4004">
      <stop
         style="stop-color:#000000;stop-opacity:1;"
         offset="0"
         id="stop4000" />
      <stop
         style="stop-color:#000000;stop-opacity:0;"
         offset="1"
         id="stop4002" />
    </linearGradient>
    <filter
       inkscape:collect="always"
       style="color-interpolation-filters:sRGB"
       id="filter3975"
       x="-0.10637096"
       width="1.2127419"
       y="-0.12534261"
       height="1.2506852">
      <feGaussianBlur
         inkscape:collect="always"
         stdDeviation="12.949582"
         id="feGaussianBlur3977" />
    </filter>
  </defs>
  <sodipodi:namedview
     id="base"
     pagecolor="#ffffff"
     bordercolor="#666666"
     borderopacity="1.0"
     inkscape:pageopacity="0.0"
     inkscape:pageshadow="2"
     inkscape:zoom="0.70000001"
     inkscape:cx="286.88655"
     inkscape:cy="495.28168"
     inkscape:document-units="mm"
     inkscape:current-layer="layer1"
     inkscape:document-rotation="0"
     showgrid="false"
     inkscape:window-width="1920"
     inkscape:window-height="1017"
     inkscape:window-x="-8"
     inkscape:window-y="-8"
     inkscape:window-maximized="1" />
  <metadata
     id="metadata906">
    <rdf:RDF>
      <cc:Work
         rdf:about="">
        <dc:format>image/svg+xml</dc:format>
        <dc:type
           rdf:resource="http://purl.org/dc/dcmitype/StillImage" />
        <dc:title />
      </cc:Work>
    </rdf:RDF>
  </metadata>
  <g
     inkscape:label="Layer 1"
     inkscape:groupmode="layer"
     id="layer1">
    <rect
       style="mix-blend-mode:normal;fill:url(#linearGradient4006);fill-opacity:1;stroke:#000000;stroke-width:0.3;stroke-miterlimit:4;stroke-dasharray:none;stroke-opacity:1;filter:url(#filter3975)"
       id="rect3913"
       width="292.1756"
       height="247.95238"
       x="-9.6270618"
       y="-10.119362" />
    <g
       class="cloud2"
       style="fill:#d40000;fill-opacity:1;stroke:#000000;stroke-width:3;stroke-miterlimit:4;stroke-dasharray:none;stroke-opacity:1"
       transform="matrix(0.15977089,0,0,0.15180011,132.60432,26.925292)"
       id="g32">
      <path
         style="fill:#d40000;fill-opacity:1;stroke:#000000;stroke-width:3;stroke-linecap:butt;stroke-linejoin:miter;stroke-miterlimit:4;stroke-dasharray:none;stroke-opacity:1"
         d="m 27.894422,145.18542 c 0,0 51.216572,63.64444 86.035208,1.3449 0,0 13.38193,-24.52434 45.37104,-14.78799 0,0 -14.11525,-99.142825 81.33073,-75.281332 0,0 15.12348,-45.370445 70.24017,-45.370445 0,0 62.84646,-6.0493925 71.58447,53.100224 0,0 78.09529,-25.217393 89.02685,83.147623 0,0 12.8327,103.13689 -87.92776,90.77947 2.3233,51.99337 -103.38939,93.00313 -120.72243,26.61597 1.77655,5.32964 -80.63405,89.37162 -117.87072,-10.45627 0,0 -81.568573,43.69783 -117.067558,-109.09215 z"
         id="path3102"
         sodipodi:nodetypes="cccccccccc" />
      <path
         style="fill:#d40000;fill-opacity:1;stroke:#000000;stroke-width:3;stroke-linecap:butt;stroke-linejoin:miter;stroke-miterlimit:4;stroke-dasharray:none;stroke-opacity:1"
         d="m 144.96198,254.27757 c 1.14504,-47.95777 53.96279,-80.79767 70.29557,-18.18322"
         id="path3112"
         sodipodi:nodetypes="cc" />
      <path
         style="fill:#d40000;fill-opacity:1;stroke:#000000;stroke-width:3;stroke-linecap:butt;stroke-linejoin:miter;stroke-miterlimit:4;stroke-dasharray:none;stroke-opacity:1"
         d="m 383.55513,238.11787 c -51.04824,-0.64574 -55.02758,-92.6768 15.70478,-81.0017"
         id="path3114"
         sodipodi:nodetypes="cc" />
      <path
         style="fill:#d40000;fill-opacity:1;stroke:#000000;stroke-width:3;stroke-linecap:butt;stroke-linejoin:miter;stroke-miterlimit:4;stroke-dasharray:none;stroke-opacity:1"
         d="M 240.6314,56.460998 C 219.26267,167.07027 363.14752,139.64084 320.10456,69.86692"
         id="path3116"
         sodipodi:nodetypes="cc" />
    </g>
    <g
       class="cloud3"
       style="fill:#d40000;fill-opacity:1;stroke:#000000;stroke-width:3;stroke-miterlimit:4;stroke-dasharray:none;stroke-opacity:1"
       transform="matrix(0.15977089,0,0,0.15180011,80.23826,91.741635)"
       id="g38">
      <path
         style="fill:#d40000;fill-opacity:1;stroke:#000000;stroke-width:3;stroke-linecap:butt;stroke-linejoin:miter;stroke-miterlimit:4;stroke-dasharray:none;stroke-opacity:1"
         d="m 27.894422,145.18542 c 0,0 51.216572,63.64444 86.035208,1.3449 0,0 13.38193,-24.52434 45.37104,-14.78799 0,0 -14.11525,-99.142825 81.33073,-75.281332 0,0 15.12348,-45.370445 70.24017,-45.370445 0,0 62.84646,-6.0493925 71.58447,53.100224 0,0 78.09529,-25.217393 89.02685,83.147623 0,0 12.8327,103.13689 -87.92776,90.77947 2.3233,51.99337 -103.38939,93.00313 -120.72243,26.61597 1.77655,5.32964 -80.63405,89.37162 -117.87072,-10.45627 0,0 -81.568573,43.69783 -117.067558,-109.09215 z"
         id="path3102-9-7-3-1-1"
         sodipodi:nodetypes="cccccccccc" />
      <path
         style="fill:#d40000;fill-opacity:1;stroke:#000000;stroke-width:3;stroke-linecap:butt;stroke-linejoin:miter;stroke-miterlimit:4;stroke-dasharray:none;stroke-opacity:1"
         d="m 144.96198,254.27757 c 1.14504,-47.95777 53.96279,-80.79767 70.29557,-18.18322"
         id="path3112-1-8-4-5-6"
         sodipodi:nodetypes="cc" />
      <path
         style="fill:#d40000;fill-opacity:1;stroke:#000000;stroke-width:3;stroke-linecap:butt;stroke-linejoin:miter;stroke-miterlimit:4;stroke-dasharray:none;stroke-opacity:1"
         d="m 383.55513,238.11787 c -51.04824,-0.64574 -55.02758,-92.6768 15.70478,-81.0017"
         id="path3114-3-6-5-5-7"
         sodipodi:nodetypes="cc" />
      <path
         style="fill:#d40000;fill-opacity:1;stroke:#000000;stroke-width:3;stroke-linecap:butt;stroke-linejoin:miter;stroke-miterlimit:4;stroke-dasharray:none;stroke-opacity:1"
         d="M 240.6314,56.460998 C 219.26267,167.07027 363.14752,139.64084 320.10456,69.86692"
         id="path3116-0-8-1-8-0"
         sodipodi:nodetypes="cc" />
    </g>
    <g
       class="leftarm"
       id="g42"
       transform="translate(0.95627005,20.118723)">
      <rect
         style="fill:#ffccaa;stroke:#000000;stroke-width:0.302754;stroke-miterlimit:4;stroke-dasharray:none;stroke-opacity:1"
         id="rect38-0-6-9-2-5"
         width="14.105669"
         height="20.348621"
         x="-22.27206"
         y="71.599976"
         transform="matrix(0.31504982,-0.94907513,0.87219292,0.48916205,0,0)" />
      <rect
         style="fill:#000000;stroke:#252525;stroke-width:0.510251;stroke-miterlimit:4;stroke-dasharray:none;stroke-opacity:1"
         id="rect38-0-6-9-3"
         width="16.647411"
         height="70.692413"
         x="-21.868971"
         y="75.583946"
         transform="matrix(0.24765242,-0.96884895,0.86115649,0.50833994,0,0)" />
    </g>
    <g
       id="g909"
       transform="translate(-78.772261,18.856012)">
      <path
         style="fill:#ffccaa;fill-opacity:1;stroke:#000000;stroke-width:0.264583px;stroke-linecap:butt;stroke-linejoin:miter;stroke-opacity:1"
         d="m 153.97434,187.45314 3.19706,-26.09937 14.21903,1.31725 -3.19706,26.09938 z"
         id="path902" />
      <path
         style="fill:#2b1100;fill-opacity:1;stroke:#000000;stroke-width:0.264583px;stroke-linecap:butt;stroke-linejoin:miter;stroke-opacity:1"
         d="m 153.97433,187.45315 0.35882,-3.02786 10.98998,1.03766 0.21007,-2.44791 3.28112,0.57491 -0.62095,5.18045 z"
         id="path900" />
      <path
         style="fill:#1a1a1a;fill-opacity:1;stroke:#000000;stroke-width:0.264583px;stroke-linecap:butt;stroke-linejoin:miter;stroke-opacity:1"
         d="m 153.45202,178.68952 7.80468,-54.52966 17.0083,2.68907 -7.80468,54.52967 z"
         id="path904" />
    </g>
    <g
       id="g898"
       transform="translate(-37.40207,17.588558)">
      <path
         style="fill:#ffccaa;fill-opacity:1;stroke:#000000;stroke-width:0.264583px;stroke-linecap:butt;stroke-linejoin:miter;stroke-opacity:1"
         d="m 132.34606,190.40002 -0.22665,-26.77719 14.23125,-0.94825 0.22665,26.77719 z"
         id="path903" />
      <path
         style="fill:#2b1100;fill-opacity:1;stroke:#000000;stroke-width:0.264583px;stroke-linecap:butt;stroke-linejoin:miter;stroke-opacity:1"
         d="m 132.35111,190.47715 -0.0499,-3.10459 10.99816,-0.77288 -0.11943,-2.49673 3.31897,0.0359 0.0784,5.31292 z"
         id="path896" />
      <path
         style="fill:#1a1a1a;fill-opacity:1;stroke:#000000;stroke-width:0.264583px;stroke-linecap:butt;stroke-linejoin:miter;stroke-opacity:1"
         d="m 130.67763,181.58772 -0.24805,-56.15217 17.15743,-0.40469 0.24805,56.15217 z"
         id="path898" />
    </g>
    <g
       class="torso"
       id="g46"
       transform="translate(0.95627005,20.118723)">
      <rect
         style="fill:#000000;stroke:#252525;stroke-width:0.504761;stroke-miterlimit:4;stroke-dasharray:none;stroke-opacity:1"
         id="rect38-0"
         width="34.702549"
         height="65.446701"
         x="136.14786"
         y="28.155035"
         transform="matrix(0.93446114,0.35606513,-0.52961126,0.84824048,0,0)" />
      <path
         style="fill:#d40000;fill-opacity:1;stroke:#000000;stroke-width:0.264583px;stroke-linecap:butt;stroke-linejoin:miter;stroke-opacity:1"
         d="m 144.74184,84.71611 -34.66131,55.51453 -3.85595,-1.47584 35.81412,-55.024107 z"
         id="path3025" />
    </g>
    <g
       class="rightarm"
       id="g50"
       transform="translate(0.95627005,20.118723)">
      <rect
         style="fill:#ffccaa;stroke:#000000;stroke-width:0.302754;stroke-miterlimit:4;stroke-dasharray:none;stroke-opacity:1"
         id="rect38-0-6-9-2"
         width="14.105669"
         height="20.348621"
         x="-82.516983"
         y="49.336815"
         transform="matrix(-0.05352671,-0.99856642,0.99062097,0.13663852,0,0)" />
      <rect
         style="fill:#000000;stroke:#252525;stroke-width:0.500573;stroke-miterlimit:4;stroke-dasharray:none;stroke-opacity:1"
         id="rect38-0-6-9"
         width="17.166656"
         height="65.083382"
         x="-87.454948"
         y="60.289253"
         transform="matrix(0.00520821,-0.99998644,0.99734507,0.07282035,0,0)" />
    </g>
    <path
       style="fill:#000000;fill-opacity:1;stroke:#000000;stroke-width:0.264583px;stroke-linecap:butt;stroke-linejoin:miter;stroke-opacity:1"
       d="m 124.75275,102.83509 -0.0894,17.16642 2.17472,1.92342 4.20949,-5.81311 0.33409,-13.76438 -6.28084,-3.340866 z"
       id="hidden" />
    <g
       class="head"
       transform="matrix(0.87760707,0,0,0.87760707,13.964458,31.285067)"
       id="g63">
      <g
         id="g3021"
         style="stroke:#0d0d0d;stroke-opacity:1"
         transform="translate(-1.6213858,-2.272634)">
        <rect
           style="fill:#ececec;stroke:#0d0d0d;stroke-width:0.165255;stroke-opacity:1"
           id="rect12"
           width="46.050823"
           height="17.719332"
           x="119.96049"
           y="4.8867192"
           transform="rotate(10.704918)" />
        <rect
           style="fill:#ececec;stroke:#0d0d0d;stroke-width:0.133065;stroke-opacity:1"
           id="rect12-7"
           width="21.972368"
           height="24.078455"
           x="119.96049"
           y="20.499949"
           transform="rotate(10.704918)" />
      </g>
      <rect
         style="fill:#ffccaa;stroke:#000000;stroke-width:0.5;stroke-miterlimit:4;stroke-dasharray:none;stroke-opacity:1"
         id="rect10"
         width="46.050816"
         height="39.691692"
         x="117.94518"
         y="2.9548101"
         transform="rotate(10.704918)" />
      <rect
         style="fill:#ffffff;stroke:#000000;stroke-width:0.203071;stroke-opacity:1"
         id="rect34"
         width="7.6751356"
         height="3.8375678"
         x="152.78874"
         y="25.157991"
         transform="rotate(10.704918)" />
      <rect
         style="fill:#d40000;stroke:#410000;stroke-width:0.212703;stroke-opacity:1"
         id="rect36"
         width="3.8375678"
         height="3.8375678"
         x="156.62631"
         y="25.157991"
         transform="rotate(10.704918)" />
      <rect
         style="fill:#000000;stroke:#252525;stroke-width:0.5;stroke-miterlimit:4;stroke-dasharray:none;stroke-opacity:1"
         id="rect38"
         width="49.120869"
         height="16.547001"
         x="116.48019"
         y="37.568546"
         transform="rotate(10.704918)" />
      <rect
         style="fill:#d40000;stroke:#000000;stroke-width:0.3;stroke-miterlimit:4;stroke-dasharray:none;stroke-opacity:1"
         id="rect36-4"
         width="49.120876"
         height="3.8375678"
         x="116.48019"
         y="37.568546"
         transform="rotate(10.704918)" />
      <rect
         style="fill:#d40000;stroke:#000000;stroke-width:0.3;stroke-miterlimit:4;stroke-dasharray:none;stroke-opacity:1"
         id="rect36-4-9"
         width="3.8375678"
         height="16.529406"
         x="161.7635"
         y="37.568546"
         transform="rotate(10.704918)" />
      <path
         style="fill:#e6e6e6;stroke:#000000;stroke-width:0.5;stroke-linecap:butt;stroke-linejoin:miter;stroke-miterlimit:4;stroke-dasharray:none;stroke-opacity:1"
         d="m 108.9405,58.627233 6.40319,-33.815416 45.24939,8.553982 -3.29138,17.410959 -23.63714,-4.479452 -3.11831,16.406529 z"
         id="path3023" />
    </g>
    <g
       class="cloud4"
       style="fill:#d40000;fill-opacity:1;stroke:#000000;stroke-width:3;stroke-miterlimit:4;stroke-dasharray:none;stroke-opacity:1"
       transform="matrix(0.15977089,0,0,0.15180011,12.187184,3.2163406)"
       id="g69">
      <path
         style="fill:#d40000;fill-opacity:1;stroke:#000000;stroke-width:3;stroke-linecap:butt;stroke-linejoin:miter;stroke-miterlimit:4;stroke-dasharray:none;stroke-opacity:1"
         d="m 27.894422,145.18542 c 0,0 51.216572,63.64444 86.035208,1.3449 0,0 13.38193,-24.52434 45.37104,-14.78799 0,0 -14.11525,-99.142825 81.33073,-75.281332 0,0 15.12348,-45.370445 70.24017,-45.370445 0,0 62.84646,-6.0493925 71.58447,53.100224 0,0 78.09529,-25.217393 89.02685,83.147623 0,0 12.8327,103.13689 -87.92776,90.77947 2.3233,51.99337 -103.38939,93.00313 -120.72243,26.61597 1.77655,5.32964 -80.63405,89.37162 -117.87072,-10.45627 0,0 -81.568573,43.69783 -117.067558,-109.09215 z"
         id="path3102-9"
         sodipodi:nodetypes="cccccccccc" />
      <path
         style="fill:#d40000;fill-opacity:1;stroke:#000000;stroke-width:3;stroke-linecap:butt;stroke-linejoin:miter;stroke-miterlimit:4;stroke-dasharray:none;stroke-opacity:1"
         d="m 144.96198,254.27757 c 1.14504,-47.95777 53.96279,-80.79767 70.29557,-18.18322"
         id="path3112-1"
         sodipodi:nodetypes="cc" />
      <path
         style="fill:#d40000;fill-opacity:1;stroke:#000000;stroke-width:3;stroke-linecap:butt;stroke-linejoin:miter;stroke-miterlimit:4;stroke-dasharray:none;stroke-opacity:1"
         d="m 383.55513,238.11787 c -51.04824,-0.64574 -55.02758,-92.6768 15.70478,-81.0017"
         id="path3114-3"
         sodipodi:nodetypes="cc" />
      <path
         style="fill:#d40000;fill-opacity:1;stroke:#000000;stroke-width:3;stroke-linecap:butt;stroke-linejoin:miter;stroke-miterlimit:4;stroke-dasharray:none;stroke-opacity:1"
         d="M 240.6314,56.460998 C 219.26267,167.07027 363.14752,139.64084 320.10456,69.86692"
         id="path3116-0"
         sodipodi:nodetypes="cc" />
    </g>
    <g
       class="cloud5"
       style="fill:#d40000;fill-opacity:1;stroke:#000000;stroke-width:3;stroke-miterlimit:4;stroke-dasharray:none;stroke-opacity:1"
       transform="matrix(0.15977089,0,0,0.15180011,-13.74777,148.44949)"
       id="g75">
      <path
         style="fill:#d40000;fill-opacity:1;stroke:#000000;stroke-width:3;stroke-linecap:butt;stroke-linejoin:miter;stroke-miterlimit:4;stroke-dasharray:none;stroke-opacity:1"
         d="m 27.894422,145.18542 c 0,0 51.216572,63.64444 86.035208,1.3449 0,0 13.38193,-24.52434 45.37104,-14.78799 0,0 -14.11525,-99.142825 81.33073,-75.281332 0,0 15.12348,-45.370445 70.24017,-45.370445 0,0 62.84646,-6.0493925 71.58447,53.100224 0,0 78.09529,-25.217393 89.02685,83.147623 0,0 12.8327,103.13689 -87.92776,90.77947 2.3233,51.99337 -103.38939,93.00313 -120.72243,26.61597 1.77655,5.32964 -80.63405,89.37162 -117.87072,-10.45627 0,0 -81.568573,43.69783 -117.067558,-109.09215 z"
         id="path3102-9-7"
         sodipodi:nodetypes="cccccccccc" />
      <path
         style="fill:#d40000;fill-opacity:1;stroke:#000000;stroke-width:3;stroke-linecap:butt;stroke-linejoin:miter;stroke-miterlimit:4;stroke-dasharray:none;stroke-opacity:1"
         d="m 144.96198,254.27757 c 1.14504,-47.95777 53.96279,-80.79767 70.29557,-18.18322"
         id="path3112-1-8"
         sodipodi:nodetypes="cc" />
      <path
         style="fill:#d40000;fill-opacity:1;stroke:#000000;stroke-width:3;stroke-linecap:butt;stroke-linejoin:miter;stroke-miterlimit:4;stroke-dasharray:none;stroke-opacity:1"
         d="m 383.55513,238.11787 c -51.04824,-0.64574 -55.02758,-92.6768 15.70478,-81.0017"
         id="path3114-3-6"
         sodipodi:nodetypes="cc" />
      <path
         style="fill:#d40000;fill-opacity:1;stroke:#000000;stroke-width:3;stroke-linecap:butt;stroke-linejoin:miter;stroke-miterlimit:4;stroke-dasharray:none;stroke-opacity:1"
         d="M 240.6314,56.460998 C 219.26267,167.07027 363.14752,139.64084 320.10456,69.86692"
         id="path3116-0-8"
         sodipodi:nodetypes="cc" />
    </g>
    <g
       class="cloud1"
       style="fill:#d40000;fill-opacity:1;stroke:#000000;stroke-width:3;stroke-miterlimit:4;stroke-dasharray:none;stroke-opacity:1"
       transform="matrix(0.15977089,0,0,0.15180011,171.55016,132.75195)"
       id="g81">
      <path
         style="fill:#d40000;fill-opacity:1;stroke:#000000;stroke-width:3;stroke-linecap:butt;stroke-linejoin:miter;stroke-miterlimit:4;stroke-dasharray:none;stroke-opacity:1"
         d="m 27.894422,145.18542 c 0,0 51.216572,63.64444 86.035208,1.3449 0,0 13.38193,-24.52434 45.37104,-14.78799 0,0 -14.11525,-99.142825 81.33073,-75.281332 0,0 15.12348,-45.370445 70.24017,-45.370445 0,0 62.84646,-6.0493925 71.58447,53.100224 0,0 78.09529,-25.217393 89.02685,83.147623 0,0 12.8327,103.13689 -87.92776,90.77947 2.3233,51.99337 -103.38939,93.00313 -120.72243,26.61597 1.77655,5.32964 -80.63405,89.37162 -117.87072,-10.45627 0,0 -81.568573,43.69783 -117.067558,-109.09215 z"
         id="path3102-9-7-3"
         sodipodi:nodetypes="cccccccccc" />
      <path
         style="fill:#d40000;fill-opacity:1;stroke:#000000;stroke-width:3;stroke-linecap:butt;stroke-linejoin:miter;stroke-miterlimit:4;stroke-dasharray:none;stroke-opacity:1"
         d="m 144.96198,254.27757 c 1.14504,-47.95777 53.96279,-80.79767 70.29557,-18.18322"
         id="path3112-1-8-4"
         sodipodi:nodetypes="cc" />
      <path
         style="fill:#d40000;fill-opacity:1;stroke:#000000;stroke-width:3;stroke-linecap:butt;stroke-linejoin:miter;stroke-miterlimit:4;stroke-dasharray:none;stroke-opacity:1"
         d="m 383.55513,238.11787 c -51.04824,-0.64574 -55.02758,-92.6768 15.70478,-81.0017"
         id="path3114-3-6-5"
         sodipodi:nodetypes="cc" />
      <path
         style="fill:#d40000;fill-opacity:1;stroke:#000000;stroke-width:3;stroke-linecap:butt;stroke-linejoin:miter;stroke-miterlimit:4;stroke-dasharray:none;stroke-opacity:1"
         d="M 240.6314,56.460998 C 219.26267,167.07027 363.14752,139.64084 320.10456,69.86692"
         id="path3116-0-8-1"
         sodipodi:nodetypes="cc" />
    </g>
    <g
       class="cloud6"
       style="fill:#d40000;fill-opacity:1;stroke:#000000;stroke-width:3;stroke-miterlimit:4;stroke-dasharray:none;stroke-opacity:1"
       transform="matrix(0.15977089,0,0,0.15180011,-54.85758,73.787672)"
       id="g87">
      <path
         style="fill:#d40000;fill-opacity:1;stroke:#000000;stroke-width:3;stroke-linecap:butt;stroke-linejoin:miter;stroke-miterlimit:4;stroke-dasharray:none;stroke-opacity:1"
         d="m 27.894422,145.18542 c 0,0 51.216572,63.64444 86.035208,1.3449 0,0 13.38193,-24.52434 45.37104,-14.78799 0,0 -14.11525,-99.142825 81.33073,-75.281332 0,0 15.12348,-45.370445 70.24017,-45.370445 0,0 62.84646,-6.0493925 71.58447,53.100224 0,0 78.09529,-25.217393 89.02685,83.147623 0,0 12.8327,103.13689 -87.92776,90.77947 2.3233,51.99337 -103.38939,93.00313 -120.72243,26.61597 1.77655,5.32964 -80.63405,89.37162 -117.87072,-10.45627 0,0 -81.568573,43.69783 -117.067558,-109.09215 z"
         id="path3102-9-7-3-1"
         sodipodi:nodetypes="cccccccccc" />
      <path
         style="fill:#d40000;fill-opacity:1;stroke:#000000;stroke-width:3;stroke-linecap:butt;stroke-linejoin:miter;stroke-miterlimit:4;stroke-dasharray:none;stroke-opacity:1"
         d="m 144.96198,254.27757 c 1.14504,-47.95777 53.96279,-80.79767 70.29557,-18.18322"
         id="path3112-1-8-4-5"
         sodipodi:nodetypes="cc" />
      <path
         style="fill:#d40000;fill-opacity:1;stroke:#000000;stroke-width:3;stroke-linecap:butt;stroke-linejoin:miter;stroke-miterlimit:4;stroke-dasharray:none;stroke-opacity:1"
         d="m 383.55513,238.11787 c -51.04824,-0.64574 -55.02758,-92.6768 15.70478,-81.0017"
         id="path3114-3-6-5-5"
         sodipodi:nodetypes="cc" />
      <path
         style="fill:#d40000;fill-opacity:1;stroke:#000000;stroke-width:3;stroke-linecap:butt;stroke-linejoin:miter;stroke-miterlimit:4;stroke-dasharray:none;stroke-opacity:1"
         d="M 240.6314,56.460998 C 219.26267,167.07027 363.14752,139.64084 320.10456,69.86692"
         id="path3116-0-8-1-8"
         sodipodi:nodetypes="cc" />
    </g>
  </g>
</svg>
